<mxfile host="Electron" agent="Mozilla/5.0 (Windows NT 10.0; Win64; x64) AppleWebKit/537.36 (KHTML, like Gecko) draw.io/27.0.9 Chrome/134.0.6998.205 Electron/35.4.0 Safari/537.36" version="27.0.9">
  <diagram name="Page-1" id="Ow1eRuE73mVq4-kLKZNc">
    <mxGraphModel dx="690" dy="521" grid="1" gridSize="10" guides="1" tooltips="1" connect="1" arrows="1" fold="1" page="1" pageScale="1" pageWidth="850" pageHeight="1100" math="0" shadow="0">
      <root>
        <mxCell id="0" />
        <mxCell id="1" parent="0" />
        <mxCell id="3U6vMXRmdNeMJ1EXV3r5-11" value="" style="edgeStyle=orthogonalEdgeStyle;rounded=0;orthogonalLoop=1;jettySize=auto;html=1;" edge="1" parent="1" source="3U6vMXRmdNeMJ1EXV3r5-1" target="3U6vMXRmdNeMJ1EXV3r5-3">
          <mxGeometry relative="1" as="geometry" />
        </mxCell>
        <mxCell id="3U6vMXRmdNeMJ1EXV3r5-1" value="aplikasi" style="rounded=0;whiteSpace=wrap;html=1;" vertex="1" parent="1">
          <mxGeometry x="260" y="150" width="120" height="60" as="geometry" />
        </mxCell>
        <mxCell id="3U6vMXRmdNeMJ1EXV3r5-9" value="" style="edgeStyle=orthogonalEdgeStyle;rounded=0;orthogonalLoop=1;jettySize=auto;html=1;" edge="1" parent="1" source="3U6vMXRmdNeMJ1EXV3r5-2" target="3U6vMXRmdNeMJ1EXV3r5-4">
          <mxGeometry relative="1" as="geometry" />
        </mxCell>
        <mxCell id="3U6vMXRmdNeMJ1EXV3r5-2" value="kernel" style="rounded=0;whiteSpace=wrap;html=1;" vertex="1" parent="1">
          <mxGeometry x="260" y="320" width="120" height="60" as="geometry" />
        </mxCell>
        <mxCell id="3U6vMXRmdNeMJ1EXV3r5-8" value="" style="edgeStyle=orthogonalEdgeStyle;rounded=0;orthogonalLoop=1;jettySize=auto;html=1;" edge="1" parent="1" source="3U6vMXRmdNeMJ1EXV3r5-3" target="3U6vMXRmdNeMJ1EXV3r5-2">
          <mxGeometry relative="1" as="geometry" />
        </mxCell>
        <mxCell id="3U6vMXRmdNeMJ1EXV3r5-3" value="system call" style="rounded=0;whiteSpace=wrap;html=1;" vertex="1" parent="1">
          <mxGeometry x="260" y="240" width="120" height="60" as="geometry" />
        </mxCell>
        <mxCell id="3U6vMXRmdNeMJ1EXV3r5-4" value="hardware" style="rounded=0;whiteSpace=wrap;html=1;" vertex="1" parent="1">
          <mxGeometry x="260" y="400" width="120" height="60" as="geometry" />
        </mxCell>
        <mxCell id="3U6vMXRmdNeMJ1EXV3r5-10" value="" style="edgeStyle=orthogonalEdgeStyle;rounded=0;orthogonalLoop=1;jettySize=auto;html=1;" edge="1" parent="1" source="3U6vMXRmdNeMJ1EXV3r5-5" target="3U6vMXRmdNeMJ1EXV3r5-1">
          <mxGeometry relative="1" as="geometry" />
        </mxCell>
        <mxCell id="3U6vMXRmdNeMJ1EXV3r5-5" value="user" style="rounded=0;whiteSpace=wrap;html=1;" vertex="1" parent="1">
          <mxGeometry x="260" y="70" width="120" height="60" as="geometry" />
        </mxCell>
      </root>
    </mxGraphModel>
  </diagram>
</mxfile>
